<?xml version="1.0" encoding="UTF-8" standalone="no"?>
<!DOCTYPE svg PUBLIC "-//W3C//DTD SVG 1.1//EN" "http://www.w3.org/Graphics/SVG/1.1/DTD/svg11.dtd">
<svg version="1.1" xmlns="http://www.w3.org/2000/svg" xmlns:xlink="http://www.w3.org/1999/xlink" preserveAspectRatio="xMidYMid meet" viewBox="0 0 640 640" width="640" height="640"><defs><path d="M232.05 139.42L150.05 174.7L235.13 164.09L232.05 139.42Z" id="b7ibGJyWWg"></path><path d="M243.29 178.83L159.8 171.03L241.63 162.63L243.29 178.83Z" id="dwLy4r4qy"></path><path d="M252 152.45L239.29 162.76L237.21 145.44L235.13 128.12L249.92 135.13L264.71 142.13L252 152.45Z" id="b2Gzr0KvHv"></path><path d="M254.54 134.99L237.37 127.03L248.22 117.15L259.08 107.27L265.39 125.1L271.71 142.94L254.54 134.99Z" id="b1g7TZaM9y"></path><path d="M275.07 142.07L295.6 95.95L262.76 107.72L275.07 142.07Z" id="b1PG5ejZJU"></path><path d="M253.68 176.23L236.53 192.84L254.54 200.09L272.55 207.33L271.69 183.48L270.83 159.62L253.68 176.23Z" id="e51XESLPTS"></path><path d="M318.46 212.19L348.05 213.99L311.08 183.48L274.11 152.96L281.49 181.67L288.87 210.38L318.46 212.19Z" id="b5E2LXmKm"></path><path d="M324.69 292.86L359.34 292.69L340.19 261.86L321.04 231.04L305.54 262.03L290.03 293.02L324.69 292.86Z" id="b12ziJFhnO"></path><path d="M348.05 256.51L405.13 185.56L421.88 225.74L348.05 256.51Z" id="cfYoOfd2J"></path><path d="M362.53 146.35L382.96 174.7L330.37 160.03L277.78 145.35L309.93 131.68L342.09 118.01L362.53 146.35Z" id="f1Ro6TQI4s"></path><path d="M216.5 231.04L294.43 221.64L229.47 196.94L216.5 231.04Z" id="a1DAEgsL8m"></path><path d="M298.67 252.06L286.14 277.64L270.37 255.26L254.61 232.88L282.9 229.68L311.2 226.49L298.67 252.06Z" id="bvkLk1ZC4"></path><path d="M244.59 328.53L244.59 333.23L244.59 333.23L244.59 328.53Z" id="d4aZsL88YX"></path><path d="M318.43 365.15L246.32 234.57L224.99 252.23L318.43 365.15Z" id="d3Mg5ApUzx"></path><path d="M380.11 467.31L430.06 236.1L411.19 233.59L380.11 467.31Z" id="l1Nl8UPWU2"></path><path d="M277.63 520.83L287.46 574.77L305.98 473.89L324.49 373.02L296.14 419.95L267.79 466.88L277.63 520.83Z" id="a2xqDdV827"></path><path d="M344.4 529.9L324.69 583.74L328.69 474.76L332.69 365.78L348.4 420.92L364.11 476.06L344.4 529.9Z" id="b1vBdY6NU"></path><path d="M268.64 550.31L287.74 574.23L276.66 520.77L265.58 467.31L257.56 496.84L249.54 526.39L268.64 550.31Z" id="j2fZpfbfIk"></path><path d="M357.46 567.99L328.41 589.89L350.21 532.33L372.01 474.76L379.26 510.42L386.51 546.07L357.46 567.99Z" id="d5ZOIaoii"></path><path d="M306.43 523.27L289.99 615.21L301.97 616.56L313.94 617.91L318.41 524.62L322.87 431.33L306.43 523.27Z" id="a3wTrOJb6"></path><path d="M268.89 602.53L244.18 533.83L289.45 583.98L268.89 602.53Z" id="btfZEvkba"></path><path d="M316.66 607.51L388.53 551L398.26 581.23L316.66 607.51Z" id="dlgXiM5xR"></path><path d="M361.15 377.51L386.74 399.53L378.61 348.62L370.49 297.71L353.02 326.6L335.56 355.49L361.15 377.51Z" id="b3tJ83Ejku"></path><path d="M375.8 440.19L369.78 474.76L351.45 414.92L333.11 355.09L357.46 380.35L381.81 405.62L375.8 440.19Z" id="a1PeWelFso"></path><path d="M260.58 441.34L254.2 473.89L287.71 422.26L321.23 370.63L294.09 389.71L266.96 408.79L260.58 441.34Z" id="c2Pv7m2PrQ"></path><path d="M398.28 183.3L277.78 148.82L365.65 222.31L398.28 183.3Z" id="a1gFsrgKa0"></path><path d="M339.62 115.75L282.54 139.12L299.41 98.9L339.62 115.75Z" id="d8jIzBeYg"></path><path d="M266.57 142.94L243.14 162.98L267.79 161.34L266.57 142.94Z" id="b4ixCCpbkK"></path><path d="M324.69 299.93L290.03 299.86L308.97 330.82L327.91 361.77L343.63 330.89L359.34 300L324.69 299.93Z" id="bCPwPZBti"></path><path d="M302.96 361.77L229.43 263.7L206.12 300.57L302.96 361.77Z" id="c4lxtmcCI4"></path><path d="M386.05 366.43L404.07 246.13L365.85 252.93L386.05 366.43Z" id="dKNtRiFYA"></path><path d="M286.34 382.92L274.8 399.34L269.16 372.55L263.53 345.76L280.71 356.13L297.89 366.51L286.34 382.92Z" id="b19g0r7p8"></path><path d="M347.62 222.24L365.85 225.86L352.79 240.1L339.73 254.34L334.56 236.48L329.38 218.63L347.62 222.24Z" id="c2b4wA1sf"></path></defs><g><g><g><use xlink:href="#b7ibGJyWWg" opacity="1" fill="#160e42" fill-opacity="1"></use></g><g><use xlink:href="#dwLy4r4qy" opacity="1" fill="#020002" fill-opacity="1"></use></g><g><use xlink:href="#b2Gzr0KvHv" opacity="1" fill="#271469" fill-opacity="1"></use></g><g><use xlink:href="#b1g7TZaM9y" opacity="1" fill="#060111" fill-opacity="1"></use></g><g><use xlink:href="#b1PG5ejZJU" opacity="1" fill="#210966" fill-opacity="1"></use></g><g><use xlink:href="#e51XESLPTS" opacity="1" fill="#23134a" fill-opacity="1"></use></g><g><use xlink:href="#b5E2LXmKm" opacity="1" fill="#14034e" fill-opacity="1"></use></g><g><use xlink:href="#b12ziJFhnO" opacity="1" fill="#000000" fill-opacity="1"></use></g><g><use xlink:href="#cfYoOfd2J" opacity="1" fill="#18067a" fill-opacity="1"></use></g><g><use xlink:href="#f1Ro6TQI4s" opacity="1" fill="#250499" fill-opacity="1"></use></g><g><use xlink:href="#a1DAEgsL8m" opacity="1" fill="#8b79bf" fill-opacity="1"></use></g><g><use xlink:href="#bvkLk1ZC4" opacity="1" fill="#3711bc" fill-opacity="1"></use></g><g><use xlink:href="#d4aZsL88YX" opacity="1" fill="#350e38" fill-opacity="1"></use></g><g><use xlink:href="#d3Mg5ApUzx" opacity="1" fill="#130750" fill-opacity="1"></use></g><g><use xlink:href="#l1Nl8UPWU2" opacity="1" fill="#23165d" fill-opacity="1"></use></g><g><use xlink:href="#a2xqDdV827" opacity="1" fill="#b5abe0" fill-opacity="1"></use></g><g><use xlink:href="#b1vBdY6NU" opacity="1" fill="#b5abe0" fill-opacity="1"></use></g><g><use xlink:href="#j2fZpfbfIk" opacity="1" fill="#23134a" fill-opacity="1"></use></g><g><use xlink:href="#d5ZOIaoii" opacity="1" fill="#23134a" fill-opacity="1"></use></g><g><use xlink:href="#a3wTrOJb6" opacity="1" fill="#150948" fill-opacity="1"></use></g><g><use xlink:href="#btfZEvkba" opacity="1" fill="#8d87b1" fill-opacity="1"></use></g><g><use xlink:href="#dlgXiM5xR" opacity="1" fill="#aaa2bd" fill-opacity="1"></use></g><g><use xlink:href="#b3tJ83Ejku" opacity="1" fill="#210b83" fill-opacity="1"></use></g><g><use xlink:href="#a1PeWelFso" opacity="1" fill="#030003" fill-opacity="1"></use></g><g><use xlink:href="#c2Pv7m2PrQ" opacity="1" fill="#0d000e" fill-opacity="1"></use></g><g><use xlink:href="#a1gFsrgKa0" opacity="1" fill="#23125f" fill-opacity="1"></use></g><g><use xlink:href="#d8jIzBeYg" opacity="1" fill="#23125f" fill-opacity="1"></use></g><g><use xlink:href="#b4ixCCpbkK" opacity="1" fill="#23125f" fill-opacity="1"></use></g><g><use xlink:href="#bCPwPZBti" opacity="1" fill="#000000" fill-opacity="1"></use></g><g><use xlink:href="#c4lxtmcCI4" opacity="1" fill="#06015f" fill-opacity="1"></use></g><g><use xlink:href="#dKNtRiFYA" opacity="1" fill="#23165d" fill-opacity="1"></use></g><g><use xlink:href="#b19g0r7p8" opacity="1" fill="#23134a" fill-opacity="1"></use></g><g><use xlink:href="#c2b4wA1sf" opacity="1" fill="#bbb0d1" fill-opacity="1"></use></g></g></g></svg>